# 3ds Max Wavefront OBJ Exporter v0.97b - (c)2007 guruware
# File Created: 26.01.2018 10:33:44

mtllib Dealer.mtl

#
# object polySurface4_pCube18
#

v  -0.4499 1.0298 -0.5565
v  -0.2280 1.0427 -0.5644
v  -0.1748 1.4132 -0.4155
v  -0.5376 1.4003 -0.4076
v  -0.5237 1.7928 -0.3349
v  -0.2500 1.8056 -0.3428
v  -0.2619 1.8566 -0.5200
v  -0.5355 1.8438 -0.5120
v  -0.1973 1.4861 -0.6689
v  -0.2376 1.0937 -0.7416
v  -0.4595 1.0808 -0.7336
v  -0.5601 1.4733 -0.6609
# 12 vertices

vn 0.0415 -0.3709 0.9277
vn 0.0366 -0.2725 0.9614
vn 0.0364 -0.2684 0.9626
vn -0.0368 0.9597 0.2788
vn -0.0366 0.2804 -0.9592
vn -0.0346 0.1795 -0.9831
vn -0.0367 0.2850 -0.9578
vn 0.0454 -0.9593 -0.2787
vn 0.9907 -0.0922 -0.1004
vn 0.9968 0.0486 -0.0630
vn 0.9968 0.0485 -0.0630
vn -0.9707 -0.2404 0.0032
vn -0.9928 -0.1110 0.0446
vn -0.9929 -0.1101 0.0450
vn -0.9959 0.0251 0.0867
vn -0.0381 0.3708 -0.9279
vn 0.9821 0.1870 -0.0245
vn 0.0318 -0.1797 0.9832
# 18 vertex normals

vt 0.3750 0.0000 0.0000
vt 0.6250 0.0000 0.0000
vt 0.6250 0.1250 0.0000
vt 0.3750 0.1250 0.0000
vt 0.3750 0.2500 0.0000
vt 0.6250 0.2500 0.0000
vt 0.6250 0.5000 0.0000
vt 0.3750 0.5000 0.0000
vt 0.6250 0.6250 0.0000
vt 0.6250 0.7500 0.0000
vt 0.3750 0.7500 0.0000
vt 0.3750 0.6250 0.0000
vt 0.6250 1.0000 0.0000
vt 0.3750 1.0000 0.0000
vt 0.8750 0.0000 0.0000
vt 0.8750 0.1250 0.0000
vt 0.1250 0.0000 0.0000
vt 0.1250 0.1250 0.0000
vt 0.1250 0.2500 0.0000
vt 0.8750 0.2500 0.0000
# 20 texture coords

o polySurface4_pCube18
g polySurface4_pCube18
usemtl initialShadingGroup
s 1
f 1/1/1 2/2/1 3/3/2 4/4/3 
s off
f 5/5/4 6/6/4 7/7/4 8/8/4 
s 2
f 9/9/5 10/10/6 11/11/6 12/12/7 
s off
f 10/10/8 2/13/8 1/14/8 11/11/8 
s 3
f 2/2/9 10/15/9 9/16/10 3/3/11 
s 4
f 11/17/12 1/1/12 4/4/13 12/18/14 
f 4/4/13 5/5/15 8/19/15 12/18/14 
s 2
f 7/7/16 9/9/5 12/12/7 8/8/16 
s 3
f 9/16/10 7/20/17 6/6/17 3/3/11 
s 1
f 4/4/3 3/3/2 6/6/18 5/5/18 
# 10 polygons

#
# object pCube18_polySurface3
#

v  -0.5375 0.1940 0.3344
v  -0.2308 0.1940 0.3344
v  -0.2697 0.5920 0.3901
v  -0.5764 0.5920 0.3901
v  -0.5375 0.9901 0.3344
v  -0.2308 0.9901 0.3344
v  -0.2308 0.9901 0.0756
v  -0.5375 0.9901 0.0756
v  -0.2697 0.5920 0.0199
v  -0.2308 0.1940 0.0756
v  -0.5375 0.1940 0.0756
v  -0.5764 0.5920 0.0199
# 12 vertices

vn 0.0000 -0.1385 0.9904
vn 0.0000 0.0000 1.0000
vn 0.0000 1.0000 0.0000
vn 0.0000 0.0000 -1.0000
vn 0.0000 -0.1385 -0.9904
vn 0.0000 -1.0000 0.0000
vn 0.9953 0.0972 0.0000
vn 1.0000 0.0000 0.0000
vn -0.9953 -0.0972 0.0000
vn -1.0000 -0.0000 0.0000
vn -0.9953 0.0972 0.0000
vn 0.0000 0.1385 -0.9904
vn 0.9953 -0.0972 0.0000
vn 0.0000 0.1385 0.9904
# 14 vertex normals

vt 0.3750 0.0000 0.0000
vt 0.6250 0.0000 0.0000
vt 0.6250 0.1250 0.0000
vt 0.3750 0.1250 0.0000
vt 0.3750 0.2500 0.0000
vt 0.6250 0.2500 0.0000
vt 0.6250 0.5000 0.0000
vt 0.3750 0.5000 0.0000
vt 0.6250 0.6250 0.0000
vt 0.6250 0.7500 0.0000
vt 0.3750 0.7500 0.0000
vt 0.3750 0.6250 0.0000
vt 0.6250 1.0000 0.0000
vt 0.3750 1.0000 0.0000
vt 0.8750 0.0000 0.0000
vt 0.8750 0.1250 0.0000
vt 0.1250 0.0000 0.0000
vt 0.1250 0.1250 0.0000
vt 0.1250 0.2500 0.0000
vt 0.8750 0.2500 0.0000
# 20 texture coords

o pCube18_polySurface3
g pCube18_polySurface3
usemtl initialShadingGroup
s 1
f 13/21/19 14/22/19 15/23/20 16/24/20 
s off
f 17/25/21 18/26/21 19/27/21 20/28/21 
s 2
f 21/29/22 22/30/23 23/31/23 24/32/22 
s off
f 22/30/24 14/33/24 13/34/24 23/31/24 
s 3
f 14/22/25 22/35/25 21/36/26 15/23/26 
s 4
f 23/37/27 13/21/27 16/24/28 24/38/28 
f 16/24/28 17/25/29 20/39/29 24/38/28 
s 2
f 19/27/30 21/29/22 24/32/22 20/28/30 
s 3
f 21/36/26 19/40/31 18/26/31 15/23/26 
s 1
f 16/24/20 15/23/20 18/26/32 17/25/32 
# 10 polygons

#
# object pCube18_polySurface2
#

v  -0.7221 2.1335 0.1253
v  -0.2520 2.1335 0.3538
v  -0.2604 2.2748 0.2959
v  -0.6655 2.2748 0.0989
v  -0.0861 2.3367 -0.0775
v  -0.4796 2.3367 -0.2688
v  -0.6571 2.3367 0.0963
v  -0.2636 2.3367 0.2876
v  -0.0776 2.2748 -0.0801
v  -0.0269 2.1335 -0.1093
v  -0.4970 2.1335 -0.3378
v  -0.4828 2.2748 -0.2771
v  -0.0705 1.8243 -0.0947
v  -0.2675 1.8243 0.3104
v  -0.6726 1.8243 0.1135
v  -0.4757 1.8243 -0.2916
v  -0.2417 2.3064 0.3440
v  -0.7149 2.3064 0.1140
v  -0.0282 2.3064 -0.0952
v  -0.5014 2.3064 -0.3252
# 20 vertices

vn 0.0000 0.3243 0.9459
vn 0.0000 1.0000 0.0000
vn 0.0000 0.3243 -0.9460
vn 0.0000 -1.0000 0.0000
vn 0.9740 0.2266 0.0000
vn -0.9634 0.2682 0.0000
vn -0.9920 -0.1262 0.0000
vn 0.0000 -0.1037 0.9946
vn 0.9944 -0.1057 0.0000
vn 0.0000 -0.1037 -0.9946
vn 0.0000 -0.7429 0.6694
vn 0.6415 -0.7671 0.0000
vn 0.0000 -0.7429 -0.6694
vn -0.6415 -0.7671 0.0000
vn 0.0000 0.8054 0.5928
vn 0.5640 0.8258 0.0000
vn 0.0000 0.8054 -0.5927
vn -0.5640 0.8258 0.0000
# 18 vertex normals

vt 0.3750 0.1716 0.0000
vt 0.6250 0.1716 0.0000
vt 0.6250 0.2500 0.0000
vt 0.3750 0.2500 0.0000
vt 0.6250 0.5000 0.0000
vt 0.3750 0.5000 0.0000
vt 0.6250 0.5784 0.0000
vt 0.3750 0.5784 0.0000
vt 0.6250 0.7500 0.0000
vt 0.6250 1.0000 0.0000
vt 0.3750 1.0000 0.0000
vt 0.3750 0.7500 0.0000
vt 0.8750 0.1716 0.0000
vt 0.8750 0.2500 0.0000
vt 0.1250 0.2500 0.0000
vt 0.1250 0.1716 0.0000
vt 0.1250 0.0000 0.0000
vt 0.3750 0.0000 0.0000
vt 0.6250 0.0000 0.0000
vt 0.8750 0.0000 0.0000
# 20 texture coords

o pCube18_polySurface2
g pCube18_polySurface2
usemtl initialShadingGroup
s off
f 25/41/33 26/42/33 27/43/33 28/44/33 
f 29/45/34 30/46/34 31/44/34 32/43/34 
f 33/45/35 34/47/35 35/48/35 36/46/35 
f 37/49/36 38/50/36 39/51/36 40/52/36 
f 27/43/37 26/42/37 34/53/37 33/54/37 
f 36/55/38 35/56/38 25/41/38 28/44/38 
f 25/41/39 35/56/39 40/57/39 39/58/39 
f 39/58/40 38/59/40 26/42/40 25/41/40 
f 34/53/41 26/42/41 38/59/41 37/60/41 
f 34/47/42 37/49/42 40/52/42 35/48/42 
f 28/44/43 27/43/43 41/43/43 42/44/43 
f 43/45/44 41/43/44 27/43/44 33/45/44 
f 44/46/45 43/45/45 33/45/45 36/46/45 
f 42/44/46 44/46/46 36/46/46 28/44/46 
f 41/43/47 32/43/47 31/44/47 42/44/47 
f 43/45/48 29/45/48 32/43/48 41/43/48 
f 44/46/49 30/46/49 29/45/49 43/45/49 
f 42/44/50 31/44/50 30/46/50 44/46/50 
# 18 polygons

#
# object pCube18_polySurface1
#

v  -0.5726 0.9876 0.3346
v  -0.1906 0.9876 0.3346
v  -0.1906 1.3983 0.4112
v  -0.6485 1.2753 0.4112
v  -0.5726 1.8090 0.3346
v  -0.1906 1.8090 0.3346
v  -0.1906 1.8090 -0.3336
v  -0.5726 1.8090 -0.3336
v  -0.1906 1.3983 -0.4102
v  -0.1906 0.9876 -0.3336
v  -0.5726 0.9876 -0.3336
v  -0.6485 1.2753 -0.4102
# 12 vertices

vn 0.0309 -0.2109 0.9770
vn -0.0044 0.0299 0.9995
vn 0.0041 -0.0280 0.9996
vn 0.0000 1.0000 0.0000
vn -0.0044 0.0299 -0.9995
vn 0.0309 -0.2109 -0.9770
vn 0.0041 -0.0280 -0.9996
vn 0.0000 -1.0000 0.0000
vn 1.0000 0.0000 0.0000
vn -0.9669 -0.2552 0.0000
vn -1.0000 0.0074 0.0000
vn -0.9900 0.1409 0.0000
vn -0.0237 0.1619 -0.9865
vn -0.0237 0.1619 0.9865
# 14 vertex normals

vt 0.3750 0.0000 0.0000
vt 0.6250 0.0000 0.0000
vt 0.6250 0.1250 0.0000
vt 0.3750 0.1250 0.0000
vt 0.3750 0.2500 0.0000
vt 0.6250 0.2500 0.0000
vt 0.6250 0.5000 0.0000
vt 0.3750 0.5000 0.0000
vt 0.6250 0.6250 0.0000
vt 0.6250 0.7500 0.0000
vt 0.3750 0.7500 0.0000
vt 0.3750 0.6250 0.0000
vt 0.6250 1.0000 0.0000
vt 0.3750 1.0000 0.0000
vt 0.8750 0.0000 0.0000
vt 0.8750 0.1250 0.0000
vt 0.1250 0.0000 0.0000
vt 0.1250 0.1250 0.0000
vt 0.1250 0.2500 0.0000
vt 0.8750 0.2500 0.0000
# 20 texture coords

o pCube18_polySurface1
g pCube18_polySurface1
usemtl initialShadingGroup
s 1
f 45/61/51 46/62/51 47/63/52 48/64/53 
s off
f 49/65/54 50/66/54 51/67/54 52/68/54 
s 2
f 53/69/55 54/70/56 55/71/56 56/72/57 
s off
f 54/70/58 46/73/58 45/74/58 55/71/58 
s 3
f 46/62/59 54/75/59 53/76/59 47/63/59 
s 4
f 55/77/60 45/61/60 48/64/61 56/78/61 
f 48/64/61 49/65/62 52/79/62 56/78/61 
s 2
f 51/67/63 53/69/55 56/72/57 52/68/63 
s 3
f 53/76/59 51/80/59 50/66/59 47/63/59 
s 1
f 48/64/53 47/63/52 50/66/64 49/65/64 
# 10 polygons

#
# object pCube18_polySurface6
#

v  -0.5375 0.1940 -0.0725
v  -0.2308 0.1940 -0.0725
v  -0.2697 0.5920 -0.0168
v  -0.5764 0.5920 -0.0168
v  -0.5375 0.9901 -0.0725
v  -0.2308 0.9901 -0.0725
v  -0.2308 0.9901 -0.3314
v  -0.5375 0.9901 -0.3314
v  -0.2697 0.5920 -0.3871
v  -0.2308 0.1940 -0.3314
v  -0.5375 0.1940 -0.3314
v  -0.5764 0.5920 -0.3871
# 12 vertices

vn 0.0000 -0.1385 0.9904
vn 0.0000 0.0000 1.0000
vn 0.0000 1.0000 0.0000
vn 0.0000 0.0000 -1.0000
vn 0.0000 -0.1385 -0.9904
vn 0.0000 -1.0000 0.0000
vn 0.9953 0.0972 0.0000
vn 1.0000 0.0000 0.0000
vn -0.9953 -0.0972 0.0000
vn -1.0000 -0.0000 0.0000
vn -0.9953 0.0972 0.0000
vn 0.0000 0.1385 -0.9904
vn 0.9953 -0.0972 0.0000
vn 0.0000 0.1385 0.9904
# 14 vertex normals

vt 0.3750 0.0000 0.0000
vt 0.6250 0.0000 0.0000
vt 0.6250 0.1250 0.0000
vt 0.3750 0.1250 0.0000
vt 0.3750 0.2500 0.0000
vt 0.6250 0.2500 0.0000
vt 0.6250 0.5000 0.0000
vt 0.3750 0.5000 0.0000
vt 0.6250 0.6250 0.0000
vt 0.6250 0.7500 0.0000
vt 0.3750 0.7500 0.0000
vt 0.3750 0.6250 0.0000
vt 0.6250 1.0000 0.0000
vt 0.3750 1.0000 0.0000
vt 0.8750 0.0000 0.0000
vt 0.8750 0.1250 0.0000
vt 0.1250 0.0000 0.0000
vt 0.1250 0.1250 0.0000
vt 0.1250 0.2500 0.0000
vt 0.8750 0.2500 0.0000
# 20 texture coords

o pCube18_polySurface6
g pCube18_polySurface6
usemtl initialShadingGroup
s 1
f 57/81/65 58/82/65 59/83/66 60/84/66 
s off
f 61/85/67 62/86/67 63/87/67 64/88/67 
s 2
f 65/89/68 66/90/69 67/91/69 68/92/68 
s off
f 66/90/70 58/93/70 57/94/70 67/91/70 
s 3
f 58/82/71 66/95/71 65/96/72 59/83/72 
s 4
f 67/97/73 57/81/73 60/84/74 68/98/74 
f 60/84/74 61/85/75 64/99/75 68/98/74 
s 2
f 63/87/76 65/89/68 68/92/68 64/88/76 
s 3
f 65/96/72 63/100/77 62/86/77 59/83/72 
s 1
f 60/84/66 59/83/66 62/86/78 61/85/78 
# 10 polygons

#
# object pCube18_polySurface5
#

v  -0.4737 1.0892 0.7416
v  -0.2512 1.0892 0.7416
v  -0.1856 1.4814 0.6647
v  -0.5493 1.4814 0.6647
v  -0.5069 1.8506 0.5118
v  -0.2326 1.8506 0.5118
v  -0.2326 1.7973 0.3351
v  -0.5069 1.7973 0.3351
v  -0.1856 1.4051 0.4120
v  -0.2512 1.0358 0.5649
v  -0.4737 1.0358 0.5649
v  -0.5493 1.4051 0.4120
# 12 vertices

vn 0.0000 0.1925 0.9813
vn 0.0000 0.2946 0.9556
vn 0.0000 0.2957 0.9553
vn 0.0000 0.9573 -0.2890
vn 0.0000 -0.2834 -0.9590
vn 0.0000 -0.3826 -0.9239
vn 0.0000 -0.2822 -0.9593
vn 0.0000 -0.9573 0.2890
vn 0.9867 -0.1558 0.0470
vn 0.9997 -0.0225 0.0068
vn -0.9824 -0.1787 0.0540
vn -0.9991 -0.0400 0.0121
vn -0.9944 0.1015 -0.0306
vn 0.0000 -0.1925 -0.9813
vn 0.9931 0.1122 -0.0339
vn 0.0000 0.3826 0.9239
# 16 vertex normals

vt 0.3750 0.0000 0.0000
vt 0.6250 0.0000 0.0000
vt 0.6250 0.1250 0.0000
vt 0.3750 0.1250 0.0000
vt 0.3750 0.2500 0.0000
vt 0.6250 0.2500 0.0000
vt 0.6250 0.5000 0.0000
vt 0.3750 0.5000 0.0000
vt 0.6250 0.6250 0.0000
vt 0.6250 0.7500 0.0000
vt 0.3750 0.7500 0.0000
vt 0.3750 0.6250 0.0000
vt 0.6250 1.0000 0.0000
vt 0.3750 1.0000 0.0000
vt 0.8750 0.0000 0.0000
vt 0.8750 0.1250 0.0000
vt 0.1250 0.0000 0.0000
vt 0.1250 0.1250 0.0000
vt 0.1250 0.2500 0.0000
vt 0.8750 0.2500 0.0000
# 20 texture coords

o pCube18_polySurface5
g pCube18_polySurface5
usemtl initialShadingGroup
s 1
f 69/101/79 70/102/79 71/103/80 72/104/81 
s off
f 73/105/82 74/106/82 75/107/82 76/108/82 
s 2
f 77/109/83 78/110/84 79/111/84 80/112/85 
s off
f 78/110/86 70/113/86 69/114/86 79/111/86 
s 3
f 70/102/87 78/115/87 77/116/88 71/103/88 
s 4
f 79/117/89 69/101/89 72/104/90 80/118/90 
f 72/104/90 73/105/91 76/119/91 80/118/90 
s 2
f 75/107/92 77/109/83 80/112/85 76/108/92 
s 3
f 77/116/88 75/120/93 74/106/93 71/103/88 
s 1
f 72/104/81 71/103/80 74/106/94 73/105/94 
# 10 polygons

