# This file uses centimeters as units for non-parametric coordinates.

mtllib Dealer.mtl
g default
v 32.327446 -6.579697 29.304062
v 32.549360 -6.566881 29.296107
v 32.253716 -5.816737 29.525680
v 32.527354 -5.803921 29.517724
v 32.241855 -5.765734 29.348522
v 32.515494 -5.752918 29.340567
v 32.317827 -6.528694 29.126905
v 32.539742 -6.515878 29.118950
v 32.239783 -6.209183 29.452959
v 32.217300 -6.136248 29.199626
v 32.580063 -6.123432 29.191670
v 32.602547 -6.196367 29.445003
vt 0.375000 0.000000
vt 0.625000 0.000000
vt 0.625000 0.125000
vt 0.375000 0.125000
vt 0.375000 0.250000
vt 0.625000 0.250000
vt 0.625000 0.500000
vt 0.375000 0.500000
vt 0.375000 0.625000
vt 0.625000 0.625000
vt 0.625000 0.750000
vt 0.375000 0.750000
vt 0.625000 1.000000
vt 0.375000 1.000000
vt 0.875000 0.000000
vt 0.875000 0.125000
vt 0.125000 0.000000
vt 0.125000 0.125000
vt 0.125000 0.250000
vt 0.875000 0.250000
vn 0.041493 -0.370898 0.927746
vn 0.041493 -0.370898 0.927746
vn 0.036633 -0.272529 0.961450
vn 0.036424 -0.268398 0.962619
vn -0.036843 0.959656 0.278751
vn -0.036843 0.959656 0.278751
vn -0.036843 0.959656 0.278751
vn -0.036843 0.959656 0.278751
vn -0.036712 0.284957 -0.957837
vn -0.036630 0.280440 -0.959172
vn -0.034622 0.179521 -0.983145
vn -0.034622 0.179521 -0.983145
vn 0.045414 -0.959317 -0.278653
vn 0.045414 -0.959317 -0.278653
vn 0.045414 -0.959318 -0.278653
vn 0.045414 -0.959318 -0.278653
vn 0.990659 -0.092244 -0.100430
vn 0.990659 -0.092244 -0.100430
vn 0.996834 0.048561 -0.062951
vn 0.996835 0.048550 -0.062954
vn -0.970681 -0.240352 0.003188
vn -0.970681 -0.240352 0.003188
vn -0.992815 -0.111014 0.044649
vn -0.992909 -0.110053 0.044952
vn -0.995922 0.025063 0.086670
vn -0.995922 0.025063 0.086670
vn -0.038132 0.370838 -0.927914
vn -0.038132 0.370838 -0.927914
vn 0.982051 0.187016 -0.024507
vn 0.982051 0.187016 -0.024507
vn 0.031827 -0.179705 0.983206
vn 0.031827 -0.179705 0.983206
s 1
g polySurface4 pCube18
usemtl initialShadingGroup
f 1/1/1 2/2/2 12/3/3 9/4/4
s off
f 3/5/5 4/6/6 6/7/7 5/8/8
s 2
f 10/9/9 11/10/10 8/11/11 7/12/12
s off
f 7/12/13 8/11/14 2/13/15 1/14/16
s 3
f 2/2/17 8/15/18 11/16/19 12/3/20
s 4
f 7/17/21 1/1/22 9/4/23 10/18/24
f 10/18/24 9/4/23 3/5/25 5/19/26
s 2
f 5/8/27 6/7/28 11/10/10 10/9/9
s 3
f 12/3/20 11/16/19 6/20/29 4/6/30
s 1
f 9/4/4 12/3/3 4/6/31 3/5/32
g default
v 32.239834 -7.415518 30.194996
v 32.546533 -7.415518 30.194996
v 32.239834 -6.619480 30.194996
v 32.546533 -6.619480 30.194996
v 32.239834 -6.619480 29.936107
v 32.546533 -6.619480 29.936107
v 32.239834 -7.415518 29.936107
v 32.546533 -7.415518 29.936107
v 32.200971 -7.017499 30.250655
v 32.200971 -7.017499 29.880448
v 32.507670 -7.017499 29.880448
v 32.507670 -7.017499 30.250655
vt 0.375000 0.000000
vt 0.625000 0.000000
vt 0.625000 0.125000
vt 0.375000 0.125000
vt 0.375000 0.250000
vt 0.625000 0.250000
vt 0.625000 0.500000
vt 0.375000 0.500000
vt 0.375000 0.625000
vt 0.625000 0.625000
vt 0.625000 0.750000
vt 0.375000 0.750000
vt 0.625000 1.000000
vt 0.375000 1.000000
vt 0.875000 0.000000
vt 0.875000 0.125000
vt 0.125000 0.000000
vt 0.125000 0.125000
vt 0.125000 0.250000
vt 0.875000 0.250000
vn 0.000000 -0.138492 0.990363
vn 0.000000 -0.138492 0.990363
vn 0.000000 0.000000 1.000000
vn 0.000000 0.000000 1.000000
vn 0.000000 1.000000 0.000000
vn 0.000000 1.000000 0.000000
vn 0.000000 1.000000 0.000000
vn 0.000000 1.000000 0.000000
vn 0.000000 0.000000 -1.000000
vn 0.000000 0.000000 -1.000000
vn 0.000000 -0.138492 -0.990363
vn 0.000000 -0.138492 -0.990363
vn 0.000000 -1.000000 0.000000
vn 0.000000 -1.000000 0.000000
vn 0.000000 -1.000000 0.000000
vn 0.000000 -1.000000 0.000000
vn 0.995267 0.097178 0.000000
vn 0.995267 0.097178 0.000000
vn 1.000000 0.000000 0.000000
vn 1.000000 0.000000 0.000000
vn -0.995267 -0.097178 0.000000
vn -0.995267 -0.097178 0.000000
vn -1.000000 -0.000001 0.000000
vn -1.000000 -0.000001 0.000000
vn -0.995267 0.097177 0.000000
vn -0.995267 0.097177 0.000000
vn 0.000000 0.138492 -0.990364
vn 0.000000 0.138492 -0.990364
vn 0.995267 -0.097178 0.000000
vn 0.995267 -0.097178 0.000000
vn 0.000000 0.138492 0.990364
vn 0.000000 0.138492 0.990364
s 1
g pCube18 polySurface3
usemtl initialShadingGroup
f 13/21/33 14/22/34 24/23/35 21/24/36
s off
f 15/25/37 16/26/38 18/27/39 17/28/40
s 2
f 22/29/41 23/30/42 20/31/43 19/32/44
s off
f 19/32/45 20/31/46 14/33/47 13/34/48
s 3
f 14/22/49 20/35/50 23/36/51 24/23/52
s 4
f 19/37/53 13/21/54 21/24/55 22/38/56
f 22/38/56 21/24/55 15/25/57 17/39/58
s 2
f 17/28/59 18/27/60 23/30/42 22/29/41
s 3
f 24/23/52 23/36/51 18/40/61 16/26/62
s 1
f 21/24/36 24/23/35 16/26/63 15/25/64
g default
v 32.180630 -5.785222 30.094855
v 32.631093 -5.785222 30.094855
v 32.180630 -5.334760 30.078649
v 32.631093 -5.334760 30.078649
v 32.180630 -5.334760 29.660608
v 32.631093 -5.334760 29.660608
v 32.180630 -5.785222 29.644402
v 32.631093 -5.785222 29.644402
v 32.141305 -5.476027 29.612178
v 32.141305 -5.476027 30.127086
v 32.663961 -5.476027 30.127086
v 32.663961 -5.476027 29.612178
v 32.142770 -5.303102 30.113781
v 32.668953 -5.303102 30.113781
v 32.668953 -5.303102 29.625473
v 32.142770 -5.303102 29.625473
v 32.187094 -5.272829 30.072649
v 32.624628 -5.272829 30.072649
v 32.624628 -5.272829 29.666608
v 32.187094 -5.272829 29.666608
vt 0.375000 0.171599
vt 0.625000 0.171599
vt 0.625000 0.250000
vt 0.375000 0.250000
vt 0.375000 0.250000
vt 0.625000 0.250000
vt 0.625000 0.500000
vt 0.375000 0.500000
vt 0.375000 0.500000
vt 0.625000 0.500000
vt 0.625000 0.578401
vt 0.375000 0.578401
vt 0.375000 0.750000
vt 0.625000 0.750000
vt 0.625000 1.000000
vt 0.375000 1.000000
vt 0.875000 0.171599
vt 0.875000 0.250000
vt 0.125000 0.171599
vt 0.125000 0.250000
vt 0.125000 0.000000
vt 0.375000 0.000000
vt 0.625000 0.000000
vt 0.875000 0.000000
vt 0.625000 0.250000
vt 0.375000 0.250000
vt 0.625000 0.500000
vt 0.375000 0.500000
vn 0.000000 0.324336 0.945942
vn 0.000000 0.324336 0.945942
vn 0.000000 0.324336 0.945942
vn 0.000000 0.324336 0.945942
vn 0.000000 1.000000 0.000000
vn 0.000000 1.000000 0.000000
vn 0.000000 1.000000 0.000000
vn 0.000000 1.000000 0.000000
vn 0.000000 0.324298 -0.945955
vn 0.000000 0.324298 -0.945955
vn 0.000000 0.324298 -0.945955
vn 0.000000 0.324298 -0.945955
vn 0.000000 -1.000000 0.000000
vn 0.000000 -1.000000 0.000000
vn 0.000000 -1.000000 0.000000
vn 0.000000 -1.000000 0.000000
vn 0.973985 0.226612 0.000000
vn 0.973985 0.226612 0.000000
vn 0.973985 0.226612 0.000000
vn 0.973985 0.226612 0.000000
vn -0.963368 0.268184 0.000000
vn -0.963368 0.268184 0.000000
vn -0.963368 0.268184 0.000000
vn -0.963368 0.268184 0.000000
vn -0.992009 -0.126171 0.000000
vn -0.992009 -0.126171 0.000000
vn -0.992009 -0.126171 0.000000
vn -0.992009 -0.126171 0.000000
vn 0.000000 -0.103678 0.994611
vn 0.000000 -0.103678 0.994611
vn 0.000000 -0.103678 0.994611
vn 0.000000 -0.103678 0.994611
vn 0.994397 -0.105707 0.000000
vn 0.994397 -0.105707 0.000000
vn 0.994397 -0.105707 0.000000
vn 0.994397 -0.105707 0.000000
vn 0.000000 -0.103658 -0.994613
vn 0.000000 -0.103658 -0.994613
vn 0.000000 -0.103658 -0.994613
vn 0.000000 -0.103658 -0.994613
vn 0.000000 -0.742880 0.669424
vn 0.000000 -0.742880 0.669424
vn 0.000000 -0.742880 0.669424
vn 0.000000 -0.742880 0.669424
vn 0.641481 -0.767139 0.000000
vn 0.641481 -0.767139 0.000000
vn 0.641481 -0.767139 0.000000
vn 0.641481 -0.767139 0.000000
vn 0.000000 -0.742908 -0.669394
vn 0.000000 -0.742908 -0.669394
vn 0.000000 -0.742908 -0.669394
vn 0.000000 -0.742908 -0.669394
vn -0.641472 -0.767146 0.000000
vn -0.641472 -0.767146 0.000000
vn -0.641472 -0.767146 0.000000
vn -0.641472 -0.767146 0.000000
vn 0.000000 0.805385 0.592753
vn 0.000000 0.805385 0.592753
vn 0.000000 0.805385 0.592753
vn 0.000000 0.805385 0.592753
vn 0.563997 0.825777 0.000000
vn 0.563997 0.825777 0.000000
vn 0.563997 0.825777 0.000000
vn 0.563997 0.825777 0.000000
vn 0.000000 0.805406 -0.592723
vn 0.000000 0.805406 -0.592723
vn 0.000000 0.805406 -0.592723
vn 0.000000 0.805406 -0.592723
vn -0.563997 0.825777 0.000000
vn -0.563997 0.825777 0.000000
vn -0.563997 0.825777 0.000000
vn -0.563997 0.825777 0.000000
s off
g pCube18 polySurface2
usemtl initialShadingGroup
f 34/41/65 35/42/66 28/43/67 27/44/68
f 41/45/69 42/46/70 43/47/71 44/48/72
f 29/49/73 30/50/74 36/51/75 33/52/76
f 31/53/77 32/54/78 26/55/79 25/56/80
f 35/42/81 36/57/82 30/58/83 28/43/84
f 33/59/85 34/41/86 27/44/87 29/60/88
f 31/61/89 25/62/90 34/41/91 33/59/92
f 25/62/93 26/63/94 35/42/95 34/41/96
f 26/63/97 32/64/98 36/57/99 35/42/100
f 33/52/101 36/51/102 32/54/103 31/53/104
f 27/44/105 28/43/106 38/65/107 37/66/108
f 28/43/109 30/50/110 39/67/111 38/65/112
f 30/50/113 29/49/114 40/68/115 39/67/116
f 29/49/117 27/44/118 37/66/119 40/68/120
f 37/66/121 38/65/122 42/46/123 41/45/124
f 38/65/125 39/67/126 43/47/127 42/46/128
f 39/67/129 40/68/130 44/48/131 43/47/132
f 40/68/133 37/66/134 41/45/135 44/48/136
g default
v 32.204789 -6.621934 30.195190
v 32.586772 -6.621934 30.195190
v 32.204789 -5.800528 30.195190
v 32.586772 -5.800528 30.195190
v 32.204789 -5.800528 29.526964
v 32.586772 -5.800528 29.526964
v 32.204789 -6.621934 29.526964
v 32.586772 -6.621934 29.526964
v 32.128842 -6.334235 30.271780
v 32.128842 -6.334235 29.450374
v 32.586772 -6.211231 29.450374
v 32.586772 -6.211231 30.271780
vt 0.375000 0.000000
vt 0.625000 0.000000
vt 0.625000 0.125000
vt 0.375000 0.125000
vt 0.375000 0.250000
vt 0.625000 0.250000
vt 0.625000 0.500000
vt 0.375000 0.500000
vt 0.375000 0.625000
vt 0.625000 0.625000
vt 0.625000 0.750000
vt 0.375000 0.750000
vt 0.625000 1.000000
vt 0.375000 1.000000
vt 0.875000 0.000000
vt 0.875000 0.125000
vt 0.125000 0.000000
vt 0.125000 0.125000
vt 0.125000 0.250000
vt 0.875000 0.250000
vn 0.030888 -0.210929 0.977013
vn 0.030888 -0.210929 0.977013
vn -0.004383 0.029931 0.999542
vn 0.004095 -0.027963 0.999601
vn 0.000000 1.000000 0.000000
vn 0.000000 1.000000 0.000000
vn 0.000000 1.000000 0.000000
vn 0.000000 1.000000 0.000000
vn 0.004095 -0.027963 -0.999601
vn -0.004383 0.029931 -0.999542
vn 0.030888 -0.210929 -0.977013
vn 0.030888 -0.210929 -0.977013
vn 0.000000 -1.000000 0.000000
vn 0.000000 -1.000000 0.000000
vn 0.000000 -1.000000 0.000000
vn 0.000000 -1.000000 0.000000
vn 1.000000 0.000000 0.000000
vn 1.000000 0.000000 0.000000
vn 1.000000 0.000000 0.000000
vn 1.000000 0.000000 0.000000
vn -0.966878 -0.255239 0.000000
vn -0.966878 -0.255239 0.000000
vn -0.999973 0.007366 0.000000
vn -0.999973 0.007366 0.000000
vn -0.990026 0.140883 0.000000
vn -0.990026 0.140883 0.000000
vn -0.023711 0.161917 -0.986520
vn -0.023711 0.161917 -0.986520
vn 1.000000 0.000000 0.000000
vn 1.000000 0.000000 0.000000
vn -0.023711 0.161917 0.986520
vn -0.023711 0.161917 0.986520
s 1
g pCube18 polySurface1
usemtl initialShadingGroup
f 45/69/137 46/70/138 56/71/139 53/72/140
s off
f 47/73/141 48/74/142 50/75/143 49/76/144
s 2
f 54/77/145 55/78/146 52/79/147 51/80/148
s off
f 51/80/149 52/79/150 46/81/151 45/82/152
s 3
f 46/70/153 52/83/154 55/84/155 56/71/156
s 4
f 51/85/157 45/69/158 53/72/159 54/86/160
f 54/86/160 53/72/159 47/73/161 49/87/162
s 2
f 49/76/163 50/75/164 55/78/146 54/77/145
s 3
f 56/71/156 55/84/155 50/88/165 48/74/166
s 1
f 53/72/140 56/71/139 48/74/167 47/73/168
g default
v 32.239834 -7.415518 29.788044
v 32.546533 -7.415518 29.788044
v 32.239834 -6.619480 29.788044
v 32.546533 -6.619480 29.788044
v 32.239834 -6.619480 29.529154
v 32.546533 -6.619480 29.529154
v 32.239834 -7.415518 29.529154
v 32.546533 -7.415518 29.529154
v 32.200971 -7.017499 29.843703
v 32.200971 -7.017499 29.473496
v 32.507670 -7.017499 29.473496
v 32.507670 -7.017499 29.843703
vt 0.375000 0.000000
vt 0.625000 0.000000
vt 0.625000 0.125000
vt 0.375000 0.125000
vt 0.375000 0.250000
vt 0.625000 0.250000
vt 0.625000 0.500000
vt 0.375000 0.500000
vt 0.375000 0.625000
vt 0.625000 0.625000
vt 0.625000 0.750000
vt 0.375000 0.750000
vt 0.625000 1.000000
vt 0.375000 1.000000
vt 0.875000 0.000000
vt 0.875000 0.125000
vt 0.125000 0.000000
vt 0.125000 0.125000
vt 0.125000 0.250000
vt 0.875000 0.250000
vn 0.000000 -0.138492 0.990363
vn 0.000000 -0.138492 0.990363
vn 0.000000 0.000000 1.000000
vn 0.000000 0.000000 1.000000
vn 0.000000 1.000000 0.000000
vn 0.000000 1.000000 0.000000
vn 0.000000 1.000000 0.000000
vn 0.000000 1.000000 0.000000
vn 0.000000 0.000000 -1.000000
vn 0.000000 0.000000 -1.000000
vn 0.000000 -0.138492 -0.990363
vn 0.000000 -0.138492 -0.990363
vn 0.000000 -1.000000 0.000000
vn 0.000000 -1.000000 0.000000
vn 0.000000 -1.000000 0.000000
vn 0.000000 -1.000000 0.000000
vn 0.995267 0.097179 0.000000
vn 0.995267 0.097179 0.000000
vn 1.000000 0.000000 0.000000
vn 1.000000 0.000000 0.000000
vn -0.995267 -0.097180 0.000000
vn -0.995267 -0.097180 0.000000
vn -1.000000 -0.000001 0.000000
vn -1.000000 -0.000001 0.000000
vn -0.995267 0.097179 0.000000
vn -0.995267 0.097179 0.000000
vn 0.000000 0.138492 -0.990364
vn 0.000000 0.138492 -0.990364
vn 0.995267 -0.097179 0.000000
vn 0.995267 -0.097179 0.000000
vn 0.000000 0.138492 0.990364
vn 0.000000 0.138492 0.990364
s 1
g pCube18 polySurface6
usemtl initialShadingGroup
f 57/89/169 58/90/170 68/91/171 65/92/172
s off
f 59/93/173 60/94/174 62/95/175 61/96/176
s 2
f 66/97/177 67/98/178 64/99/179 63/100/180
s off
f 63/100/181 64/99/182 58/101/183 57/102/184
s 3
f 58/90/185 64/103/186 67/104/187 68/91/188
s 4
f 63/105/189 57/89/190 65/92/191 66/106/192
f 66/106/192 65/92/191 59/93/193 61/107/194
s 2
f 61/96/195 62/95/196 67/98/178 66/97/177
s 3
f 68/91/188 67/104/187 62/108/197 60/94/198
s 1
f 65/92/172 68/91/171 60/94/199 59/93/200
g default
v 32.303686 -6.520338 30.602165
v 32.526130 -6.520338 30.602165
v 32.270500 -5.758930 30.372316
v 32.544791 -5.758930 30.372316
v 32.270500 -5.812277 30.195598
v 32.544791 -5.812277 30.195598
v 32.303686 -6.573684 30.425446
v 32.526130 -6.573684 30.425446
v 32.228108 -6.128165 30.525236
v 32.228108 -6.204450 30.272526
v 32.591738 -6.204450 30.272526
v 32.591738 -6.128165 30.525236
vt 0.375000 0.000000
vt 0.625000 0.000000
vt 0.625000 0.125000
vt 0.375000 0.125000
vt 0.375000 0.250000
vt 0.625000 0.250000
vt 0.625000 0.500000
vt 0.375000 0.500000
vt 0.375000 0.625000
vt 0.625000 0.625000
vt 0.625000 0.750000
vt 0.375000 0.750000
vt 0.625000 1.000000
vt 0.375000 1.000000
vt 0.875000 0.000000
vt 0.875000 0.125000
vt 0.125000 0.000000
vt 0.125000 0.125000
vt 0.125000 0.250000
vt 0.875000 0.250000
vn 0.000000 0.192491 0.981299
vn 0.000000 0.192491 0.981299
vn 0.000000 0.294560 0.955633
vn 0.000000 0.295749 0.955266
vn 0.000000 0.957332 -0.288991
vn 0.000000 0.957332 -0.288991
vn 0.000000 0.957332 -0.288991
vn 0.000000 0.957332 -0.288991
vn 0.000000 -0.282223 -0.959349
vn 0.000000 -0.283416 -0.958997
vn 0.000000 -0.382637 -0.923899
vn 0.000000 -0.382637 -0.923899
vn 0.000000 -0.957332 0.288992
vn 0.000000 -0.957332 0.288992
vn 0.000000 -0.957332 0.288992
vn 0.000000 -0.957332 0.288992
vn 0.986662 -0.155834 0.047042
vn 0.986663 -0.155834 0.047042
vn 0.999724 -0.022483 0.006787
vn 0.999724 -0.022484 0.006788
vn -0.982415 -0.178742 0.053957
vn -0.982415 -0.178742 0.053957
vn -0.999128 -0.039968 0.012065
vn -0.999128 -0.039968 0.012065
vn -0.994366 0.101476 -0.030633
vn -0.994366 0.101476 -0.030633
vn 0.000000 -0.192491 -0.981299
vn 0.000000 -0.192491 -0.981299
vn 0.993103 0.112241 -0.033882
vn 0.993103 0.112241 -0.033882
vn 0.000000 0.382638 0.923899
vn 0.000000 0.382638 0.923899
s 1
g pCube18 polySurface5
usemtl initialShadingGroup
f 69/109/201 70/110/202 80/111/203 77/112/204
s off
f 71/113/205 72/114/206 74/115/207 73/116/208
s 2
f 78/117/209 79/118/210 76/119/211 75/120/212
s off
f 75/120/213 76/119/214 70/121/215 69/122/216
s 3
f 70/110/217 76/123/218 79/124/219 80/111/220
s 4
f 75/125/221 69/109/222 77/112/223 78/126/224
f 78/126/224 77/112/223 71/113/225 73/127/226
s 2
f 73/116/227 74/115/228 79/118/210 78/117/209
s 3
f 80/111/220 79/124/219 74/128/229 72/114/230
s 1
f 77/112/204 80/111/203 72/114/231 71/113/232
